<svg width="156" height="59" viewBox="0 0 156 59" fill="none" xmlns="http://www.w3.org/2000/svg">
<path d="M1.12641 12.4415C1.37705 11.91 2.12619 11.3316 3.85306 11.0093C5.52485 10.6954 7.81909 10.6816 10.6091 11.0011C16.1698 11.6345 23.4353 13.5487 31.0645 16.6169C38.6936 19.685 45.1631 23.293 49.4597 26.6228C51.6135 28.2919 53.1696 29.8535 54.0647 31.2003C54.9873 32.5884 55.0424 33.489 54.7945 34.0206C54.5439 34.5521 53.7948 35.1305 52.0679 35.4528C50.3961 35.7667 48.1019 35.7805 45.3119 35.461C39.7512 34.8276 32.4856 32.9134 24.8565 29.8452C17.2274 26.7771 10.7578 23.1691 6.46128 19.8393C4.3075 18.1702 2.75139 16.6086 1.85627 15.2618C0.933621 13.8737 0.878537 12.9731 1.12641 12.4415Z" stroke="black" stroke-width="2"/>
<path d="M29.922 1.09357C30.4536 1.3084 31.0264 2.01072 31.2826 3.69904C31.5305 5.33227 31.4313 7.58795 30.9631 10.3449C30.0267 15.8423 27.6663 23.0748 24.0804 30.7204C20.4944 38.3633 16.3962 44.899 12.6946 49.2836C10.8382 51.4815 9.12513 53.0899 7.66541 54.0374C6.15612 55.0151 5.21143 55.1087 4.67987 54.8967C4.14832 54.6818 3.57544 53.9795 3.3193 52.2912C3.07143 50.658 3.17058 48.4023 3.63879 45.6453C4.57522 40.148 6.93555 32.9155 10.5215 25.2698C14.1075 17.627 18.2057 11.0913 21.9073 6.70661C23.7637 4.50877 25.4768 2.90032 26.9365 1.95288C28.443 0.975143 29.3877 0.8815 29.922 1.09357Z" stroke="black" stroke-width="2"/>
<path d="M67.5276 25.8998C66.2249 23.7102 64.4512 21.9751 62.2093 20.6888C59.9646 19.4054 57.4143 18.7637 54.5582 18.7637C51.6993 18.7637 49.1489 19.4054 46.907 20.6888C45.8081 21.3196 44.8166 22.0604 43.9463 22.9087C46.0395 24.1564 47.893 25.4068 49.4602 26.6186C49.5621 26.6985 49.664 26.7784 49.7659 26.8582C50.033 26.6186 50.3195 26.3983 50.6252 26.1972C51.7269 25.4729 53.0379 25.1121 54.5582 25.1121C56.0785 25.1121 57.3895 25.4729 58.4911 26.1972C59.5956 26.9216 60.4466 27.8993 61.0415 29.1277C61.6392 30.3588 61.9366 31.7331 61.9366 33.2507C61.9366 34.771 61.6392 36.1454 61.0415 37.3737C60.4466 38.6049 59.5956 39.5826 58.4911 40.3042C57.3895 41.0285 56.0785 41.3893 54.5582 41.3893C53.0379 41.3893 51.7269 41.0285 50.6252 40.3042C49.5208 39.5826 48.6725 38.6049 48.0748 37.3737C47.8104 36.8256 47.6011 36.25 47.4551 35.6413C46.7776 35.6055 46.0642 35.5422 45.3124 35.4568C43.5882 35.2613 41.6989 34.9418 39.6855 34.5011C39.8563 36.7237 40.4925 38.7563 41.5914 40.6044C42.8914 42.7912 44.6651 44.5291 46.907 45.8126C49.1489 47.096 51.6993 47.7377 54.5582 47.7377C57.4143 47.7377 59.9646 47.096 62.2093 45.8126C64.4512 44.5291 66.2249 42.7912 67.5276 40.6044C68.8276 38.4148 69.4804 35.9636 69.4804 33.2507C69.4804 30.5378 68.8276 28.0866 67.5276 25.8998Z" fill="black"/>
<path d="M100.625 24.9511C99.7573 23.07 98.4463 21.5689 96.6919 20.448C94.9347 19.327 92.7203 18.7652 90.0433 18.7652C88.7405 18.7652 87.4213 18.9635 86.0827 19.3628C84.7442 19.7594 83.4966 20.4287 82.3398 21.3706V7.47852H74.9062V47.0893H82.3398V30.9745C82.3398 29.8894 82.618 28.9034 83.1798 28.0165C83.7417 27.1297 84.4826 26.4246 85.4052 25.9013C86.3279 25.3752 87.3304 25.1136 88.4155 25.1136C89.5365 25.1136 90.5583 25.3863 91.481 25.9288C92.4036 26.4714 93.1362 27.204 93.6788 28.1239C94.2214 29.0466 94.494 30.0711 94.494 31.1921V36.3479H101.928V31.1921C101.928 28.9116 101.492 26.8322 100.625 24.9511Z" fill="black"/>
<path d="M154.345 25.4661C153.241 23.3867 151.695 21.7507 149.707 20.5554C147.716 19.3628 145.366 18.7652 142.653 18.7652C141.494 18.7652 140.381 18.9277 139.315 19.2527C138.247 19.5804 137.288 20.0486 136.44 20.6656C135.589 21.2798 134.876 22.0041 134.297 22.8359H134.242V7.47852H126.809V32.7096C126.809 35.7475 127.406 38.3998 128.599 40.6582C129.794 42.9194 131.482 44.6656 133.672 45.8939C135.862 47.1251 138.437 47.7393 141.406 47.7393C143.755 47.7393 145.835 47.3674 147.644 46.6266C149.454 45.8857 150.971 44.8363 152.202 43.4813C153.431 42.1235 154.373 40.5315 155.023 38.7055C155.675 36.8795 156 34.8799 156 32.7096C156 29.961 155.449 27.5455 154.345 25.4661ZM147.616 37.3752C147.055 38.6064 146.25 39.5841 145.204 40.3057C144.152 41.0301 142.888 41.3909 141.406 41.3909C139.957 41.3909 138.701 41.0301 137.633 40.3057C136.567 39.5841 135.751 38.6064 135.192 37.3752C134.63 36.1469 134.35 34.7725 134.35 33.2522C134.35 31.7347 134.63 30.3603 135.192 29.1292C135.751 27.9008 136.567 26.9231 137.633 26.1987C138.701 25.4744 139.957 25.1136 141.406 25.1136C142.888 25.1136 144.152 25.4744 145.204 26.1987C146.25 26.9231 147.055 27.9008 147.616 29.1292C148.178 30.3603 148.459 31.7347 148.459 33.2522C148.459 34.7725 148.178 36.1469 147.616 37.3752Z" fill="black"/>
<path d="M107.244 57.869C104.669 57.869 102.397 57.3595 100.422 56.3459C98.4476 55.3296 96.9052 53.8864 95.7898 52.0136C94.6743 50.1407 94.1152 47.9319 94.1152 45.3842V37.2373H102.224V45.7698C102.224 46.7723 102.43 47.6785 102.846 48.4937C103.259 49.309 103.84 49.9534 104.584 50.4244C105.328 50.8954 106.214 51.1322 107.244 51.1322C108.244 51.1322 109.117 50.8954 109.861 50.4244C110.605 49.9534 111.177 49.309 111.577 48.4937C111.976 47.6785 112.177 46.7696 112.177 45.7698V27.3223H120.286V45.3842C120.286 47.9291 119.726 50.1407 118.611 52.0136C117.496 53.8864 115.959 55.3324 113.998 56.3459C112.042 57.3595 109.789 57.869 107.244 57.869Z" stroke="#FF6D2C" stroke-width="2" stroke-miterlimit="10"/>
</svg>
