<svg width="153" height="56" viewBox="0 0 153 56" fill="none" xmlns="http://www.w3.org/2000/svg">
<path d="M10.8037 12.5659C11.0327 12.0802 11.7173 11.5517 13.2951 11.2573C14.8227 10.9704 16.919 10.9578 19.4683 11.2497C24.5492 11.8285 31.1879 13.5775 38.1588 16.381C45.1296 19.1844 51.041 22.4811 54.9669 25.5237C56.9348 27.0487 58.3567 28.4756 59.1746 29.7062C60.0176 30.9745 60.068 31.7974 59.8415 32.2831C59.6125 32.7688 58.928 33.2973 57.3501 33.5918C55.8225 33.8786 53.7262 33.8912 51.1769 33.5993C46.096 33.0205 39.4573 31.2715 32.4864 28.468C25.5156 25.6646 19.6042 22.3679 15.6783 19.3254C13.7104 17.8003 12.2885 16.3734 11.4706 15.1428C10.6276 13.8745 10.5772 13.0516 10.8037 12.5659Z" stroke="black" stroke-width="2.47678"/>
<path d="M37.1144 2.1978C37.6001 2.3941 38.1236 3.03582 38.3576 4.57847C38.5841 6.07079 38.4935 8.13186 38.0657 10.6509C37.2101 15.674 35.0534 22.2825 31.7768 29.2685C28.5002 36.2519 24.7556 42.2237 21.3733 46.2301C19.6772 48.2383 18.1119 49.708 16.7781 50.5737C15.399 51.4671 14.5358 51.5526 14.0501 51.3588C13.5644 51.1625 13.041 50.5208 12.807 48.9782C12.5805 47.4859 12.6711 45.4248 13.0989 42.9057C13.9545 37.8826 16.1112 31.2742 19.3878 24.2882C22.6643 17.3047 26.409 11.3329 29.7912 7.32656C31.4874 5.31834 33.0527 3.84867 34.3865 2.98297C35.763 2.08959 36.6262 2.00403 37.1144 2.1978Z" stroke="black" stroke-width="2.47678"/>
<path d="M55.0945 25.3588L55.0934 25.358C53.7124 24.29 52.091 23.1908 50.2677 22.0936C51.002 21.4083 51.8282 20.8037 52.737 20.2821C54.751 19.1292 57.0452 18.5504 59.6253 18.5504C62.2028 18.5504 64.4971 19.1291 66.5136 20.2821C68.5319 21.44 70.1266 23.0004 71.2984 24.9699C72.466 26.9341 73.0536 29.137 73.0536 31.5811C73.0536 34.0251 72.4661 36.228 71.2985 38.1948C70.1266 40.1619 68.5318 41.7247 66.5138 42.88C64.4972 44.033 62.2029 44.6118 59.6253 44.6118C57.0452 44.6118 54.7509 44.033 52.7369 42.88C50.7188 41.7247 49.1241 40.1619 47.9548 38.1949L47.9548 38.1948C47.0131 36.6113 46.4492 34.8769 46.2657 32.9846C48.0089 33.358 49.6491 33.6313 51.1539 33.802C51.7881 33.874 52.3935 33.929 52.9718 33.9631C53.1062 34.4792 53.2894 34.9696 53.5154 35.4381L53.5157 35.4385C54.0772 36.5953 54.8766 37.5178 55.9183 38.1985C56.9636 38.8858 58.2024 39.2239 59.6253 39.2239C61.0482 39.2239 62.2868 38.8858 63.3321 38.1986C64.3736 37.5181 65.1758 36.5956 65.735 35.4385C66.2963 34.2848 66.5736 32.9977 66.5736 31.5811C66.5736 30.1668 66.2962 28.8797 65.735 27.7237C65.1757 26.5689 64.3735 25.6466 63.3322 24.9636C62.2869 24.2764 61.0482 23.9383 59.6253 23.9383C58.2024 23.9383 56.9636 24.2764 55.9183 24.9637L55.9183 24.9637C55.6797 25.1207 55.4533 25.2902 55.2394 25.4723L55.0945 25.3588Z" fill="black" stroke="black" stroke-width="0.412796"/>
<path d="M2.34 12.7132C2.6492 13.8094 3.21436 14.7639 4.03365 15.5788C4.85445 16.3927 5.88153 16.9649 7.11486 17.2954C8.34939 17.6262 9.52497 17.6442 10.6416 17.3493C11.1891 17.2041 11.703 16.9989 12.177 16.7333C11.4174 15.9524 10.7617 15.1979 10.2252 14.4933C10.1904 14.447 10.1557 14.4007 10.1209 14.3545C9.97781 14.427 9.82863 14.489 9.67335 14.5405C9.1138 14.7258 8.50593 14.7299 7.84942 14.554C7.19291 14.3781 6.66854 14.0706 6.27662 13.6303C5.88351 13.1897 5.62914 12.669 5.51437 12.0698C5.39874 11.469 5.42931 10.8411 5.6049 10.1858C5.78082 9.52925 6.06829 8.97019 6.4685 8.5089C6.86785 8.0461 7.34848 7.72236 7.9089 7.53855C8.46844 7.35322 9.07632 7.34911 9.73283 7.52502C10.3893 7.70094 10.9137 8.00843 11.3056 8.4487C11.6991 8.88809 11.9522 9.40846 12.0679 10.0092C12.1186 10.2765 12.1424 10.5493 12.135 10.829C12.4235 10.9229 12.7242 11.0328 13.039 11.1567C13.7609 11.4406 14.4232 11.1038 15.2416 11.5271C15.425 10.5475 15.5021 10.2895 15.2414 9.36433C14.933 8.26959 14.3682 7.31389 13.5486 6.50025C12.729 5.68662 11.7019 5.1144 10.4674 4.78361C9.23405 4.45314 8.05847 4.43516 6.94066 4.72966C5.82404 5.02448 4.85702 5.56972 4.04143 6.36332C3.22672 7.15842 2.66122 8.1414 2.34732 9.31289C2.03342 10.4844 2.03166 11.6184 2.34 12.7132Z" fill="black"/>
<path d="M102.701 29.6986V34.2032H96.3217V29.6986C96.3217 28.6393 96.0636 27.6667 95.5483 26.7905L95.5482 26.7903C95.0347 25.9196 94.3401 25.2251 93.4668 24.7115C92.5907 24.1963 91.6207 23.9382 90.5613 23.9382C89.535 23.9382 88.5837 24.186 87.7088 24.6848C86.8365 25.1795 86.1346 25.8474 85.6029 26.6865C85.0677 27.5314 84.8033 28.4709 84.8033 29.4998V44.0178H78.4239V8.2374H84.8033V20.7245V21.1588L85.1401 20.8846C86.1773 20.04 87.2932 19.442 88.4884 19.0879L88.4887 19.0878C89.6939 18.7282 90.8795 18.5503 92.0486 18.5503C94.4662 18.5503 96.4482 19.0576 98.0125 20.0555C99.5824 21.0586 100.754 22.3998 101.53 24.0825C102.309 25.7717 102.701 27.6418 102.701 29.6986Z" fill="black" stroke="black" stroke-width="0.412796"/>
<path d="M150.802 24.4667C149.793 22.5667 148.381 21.0718 146.565 19.9796C144.745 18.89 142.598 18.3439 140.12 18.3439C139.06 18.3439 138.043 18.4924 137.07 18.7893C136.093 19.0888 135.217 19.5166 134.442 20.0803C133.665 20.6415 133.013 21.3034 132.484 22.0634H132.434V8.03101H125.642V31.0852C125.642 33.861 126.188 36.2844 127.278 38.348C128.37 40.4141 129.912 42.0096 131.913 43.132C133.914 44.2569 136.267 44.8181 138.98 44.8181C141.126 44.8181 143.026 44.4784 144.68 43.8014C146.333 43.1245 147.72 42.1656 148.845 40.9275C149.967 39.6868 150.828 38.2323 151.422 36.5638C152.018 34.8953 152.315 33.0683 152.315 31.0852C152.315 28.5737 151.812 26.3667 150.802 24.4667ZM144.654 35.3483C144.141 36.4732 143.406 37.3666 142.45 38.0259C141.489 38.6878 140.334 39.0174 138.98 39.0174C137.656 39.0174 136.508 38.6878 135.532 38.0259C134.558 37.3666 133.813 36.4732 133.302 35.3483C132.789 34.2259 132.532 32.9701 132.532 31.581C132.532 30.1944 132.789 28.9386 133.302 27.8137C133.813 26.6913 134.558 25.7979 135.532 25.1361C136.508 24.4742 137.656 24.1445 138.98 24.1445C140.334 24.1445 141.489 24.4742 142.45 25.1361C143.406 25.7979 144.141 26.6913 144.654 27.8137C145.168 28.9386 145.425 30.1944 145.425 31.581C145.425 32.9701 145.168 34.2259 144.654 35.3483Z" fill="black"/>
<path d="M107.767 54.0743C105.414 54.0743 103.338 53.6087 101.533 52.6826C99.7291 51.754 98.3198 50.4353 97.3006 48.7241C96.2814 47.0128 95.7705 44.9945 95.7705 42.6667V35.2227H103.179V43.019C103.179 43.935 103.368 44.763 103.748 45.5079C104.125 46.2528 104.656 46.8417 105.336 47.272C106.015 47.7023 106.826 47.9188 107.767 47.9188C108.68 47.9188 109.478 47.7023 110.158 47.272C110.837 46.8417 111.361 46.2528 111.726 45.5079C112.09 44.763 112.274 43.9325 112.274 43.019V26.1631H119.683V42.6667C119.683 44.992 119.172 47.0128 118.153 48.7241C117.134 50.4353 115.729 51.7565 113.938 52.6826C112.151 53.6087 110.092 54.0743 107.767 54.0743Z" stroke="#FF6D2C" stroke-width="2.47678" stroke-miterlimit="10"/>
</svg>
