<svg width="31" height="16" viewBox="0 0 31 16" fill="none" xmlns="http://www.w3.org/2000/svg">
<path d="M1.58887 7C1.03658 7 0.588867 7.44772 0.588867 8C0.588867 8.55228 1.03658 9 1.58887 9L1.58887 7ZM30.1178 8.7071C30.5083 8.31658 30.5083 7.68341 30.1178 7.29289L23.7538 0.92893C23.3633 0.538406 22.7301 0.538406 22.3396 0.92893C21.9491 1.31945 21.9491 1.95262 22.3396 2.34314L27.9964 8L22.3396 13.6569C21.9491 14.0474 21.9491 14.6805 22.3396 15.0711C22.7301 15.4616 23.3633 15.4616 23.7538 15.0711L30.1178 8.7071ZM1.58887 9L29.4106 9L29.4106 7L1.58887 7L1.58887 9Z" fill="currentColor"/>
</svg>
