<svg width="32" height="30" viewBox="0 0 32 30" fill="none" xmlns="http://www.w3.org/2000/svg">
<g clip-path="url(#clip0_1_1226)">
<path d="M27.7525 6.51433V23.6497C27.7525 25.0017 26.6565 26.0977 25.3045 26.0977H20.7145C20.3765 26.0977 20.1026 25.8237 20.1026 25.4856V18.1419H22.9668C23.2576 18.142 23.5083 17.9373 23.5665 17.6523L24.0071 15.4492C24.0253 15.3602 24.003 15.2677 23.9463 15.1967C23.8894 15.1259 23.8041 15.0838 23.7133 15.082H20.1026V11.1042C20.1026 10.9352 20.2397 10.7982 20.4086 10.7982H23.4685C23.8066 10.7982 24.0805 10.5242 24.0805 10.1862V8.35027C24.0805 8.01228 23.8066 7.73828 23.4685 7.73828H20.4086C18.3806 7.73828 16.7366 9.38224 16.7366 11.4102V15.082H15.2311C14.8931 15.082 14.6191 15.356 14.6191 15.6941V17.53C14.6191 17.868 14.8931 18.1419 15.2311 18.1419H16.7366V25.4856C16.7366 25.8237 16.4627 26.0977 16.1246 26.0977H8.16869C6.8167 26.0977 5.7207 25.0017 5.7207 23.6497V6.51433C5.7207 5.16237 6.8167 4.06641 8.16869 4.06641H25.3045C26.6565 4.06641 27.7525 5.16237 27.7525 6.51433Z" fill="black"/>
</g>
<defs>
<clipPath id="clip0_1_1226">
<rect width="30.875" height="29.375" fill="white" transform="translate(0.828125 0.394531)"/>
</clipPath>
</defs>
</svg>
