<svg width="318" height="139" viewBox="0 0 318 139" fill="none" xmlns="http://www.w3.org/2000/svg">
<g filter="url(#filter0_d_1_1048)">
<path d="M275.367 65.0487L48.5292 25.0512C42.1046 23.9183 35.9781 28.2081 34.8453 34.6327L33.0506 44.8113C31.9177 51.2359 36.2075 57.3623 42.6321 58.4952L269.47 98.4927C275.894 99.6256 282.021 95.3358 283.153 88.9112L284.948 78.7326C286.081 72.308 281.791 66.1816 275.367 65.0487Z" fill="#FB7C43"/>
<path d="M57.358 43.5195L55.7147 38.5289L53.2031 38.0859L55.8889 46.1463L55.1728 50.2096L57.5721 50.6319L58.2883 46.57L63.5845 39.9168L61.0567 39.4709L57.8054 43.5978L57.358 43.5195Z" fill="black"/>
<path d="M69.8288 40.8048C66.2143 40.1669 63.812 42.3817 63.2199 45.7408C62.6263 49.0999 64.1265 52.0027 67.7425 52.6406C71.357 53.2784 73.7593 51.0637 74.3514 47.7046C74.9434 44.3455 73.4433 41.4412 69.8288 40.8048ZM68.1175 50.5129C65.9898 50.1379 65.2944 48.2834 65.6665 46.1719C66.0386 44.062 67.3261 42.5559 69.4538 42.9325C71.5977 43.309 72.2769 45.1605 71.9048 47.272C71.5327 49.3834 70.2599 50.8909 68.1175 50.5129Z" fill="black"/>
<path d="M84.8375 43.6658L83.5736 50.8313C83.3255 52.2399 82.3141 53.018 80.7623 52.7434C79.2267 52.4732 78.5268 51.3939 78.7749 49.9853L80.0388 42.8197L77.6557 42.4004L76.3829 49.6132C75.8868 52.4289 77.3323 54.3321 80.371 54.8681C83.4422 55.41 85.4517 54.1151 85.9478 51.2994L87.2206 44.0866L84.8375 43.6658Z" fill="black"/>
<path d="M95.432 45.5339L90.0574 44.5859L88.0449 56.0053L90.428 56.4261L91.187 52.1236L94.2729 52.6684L95.0495 57.2412L97.4489 57.6649L96.5866 52.5473C97.7767 52.1634 98.5696 51.2155 98.8206 49.7921C99.2133 47.5685 97.9598 45.9783 95.432 45.5339ZM92.0714 47.1005L94.487 47.5271C96.055 47.8033 96.5704 48.3393 96.3843 49.395C96.2145 50.3547 95.5914 50.805 94.199 50.5599L91.5443 50.0919L92.0714 47.1005Z" fill="black"/>
<path d="M106.631 47.5098L104.617 58.9306L107.002 59.35L109.014 47.9306L106.631 47.5098Z" fill="black"/>
<path d="M116.722 49.2874L111.955 48.4473L109.941 59.8667L114.708 60.7083C118.211 61.3255 120.405 59.3543 121.009 55.9317C121.616 52.4915 120.225 49.9046 116.722 49.2874ZM114.78 58.5275L112.7 58.1598L113.963 50.9943L116.042 51.3604C118.346 51.7665 118.911 53.5162 118.563 55.4991C118.216 57.4673 117.083 58.9335 114.78 58.5275Z" fill="black"/>
<path d="M125.086 60.3434L125.56 57.6561L130.279 58.4889L130.645 56.41L125.926 55.5772L126.35 53.1779L132.413 54.2469L132.788 52.1192L124.342 50.6309L122.328 62.0517L130.95 63.5711L131.325 61.4434L125.086 60.3434Z" fill="black"/>
<path d="M140.718 65.2949L143.134 65.7202L141.501 53.657L137.805 53.0059L132.16 63.7859L134.512 64.1993L135.984 61.2758L140.334 62.0436L140.718 65.2949ZM138.858 55.5484L139.562 55.6739L140.061 59.851L136.959 59.3047L138.858 55.5484Z" fill="black"/>
<path d="M159.666 60.0922C159.79 57.9867 158.256 56.3979 155.777 55.9609C153.01 55.4722 151.203 56.7375 150.871 58.6245C150.569 60.3358 151.42 61.5908 153.248 62.2597L155.355 63.0275C156.27 63.3538 156.813 63.8278 156.655 64.724C156.495 65.6365 155.554 66.0145 154.306 65.7945C153.075 65.5774 152.038 64.9986 152.053 63.6978L149.623 63.2696C149.449 65.5642 150.971 67.3168 153.85 67.8247C156.952 68.3725 158.739 66.9388 159.074 65.0356C159.436 62.9876 158.296 61.7813 156.561 61.1449L154.501 60.386C153.744 60.104 153.152 59.7186 153.283 58.9671C153.441 58.0723 154.376 57.8242 155.384 58.0014C156.567 58.2111 157.187 58.7161 157.234 59.664L159.666 60.0922Z" fill="black"/>
<path d="M171.319 58.9151L161.834 57.2422L161.465 59.3374L165.016 59.9634L163.371 69.2891L165.754 69.7099L167.399 60.3842L170.95 61.0103L171.319 58.9151Z" fill="black"/>
<path d="M177.828 71.8379L180.243 72.2646L178.61 60.2015L174.915 59.5488L169.271 70.3289L171.622 70.7438L173.094 67.8203L177.445 68.5881L177.828 71.8379ZM175.967 62.0929L176.672 62.2169L177.172 66.3954L174.069 65.8491L175.967 62.0929Z" fill="black"/>
<path d="M189.461 62.1139L184.086 61.166L182.072 72.5869L184.455 73.0077L185.214 68.7051L188.302 69.2485L189.078 73.8227L191.478 74.245L190.615 69.1289C191.804 68.745 192.598 67.797 192.849 66.3737C193.241 64.15 191.989 62.5598 189.461 62.1139ZM186.1 63.682L188.516 64.1087C190.082 64.3848 190.599 64.9208 190.413 65.9765C190.243 66.9362 189.62 67.3866 188.228 67.1415L185.573 66.6734L186.1 63.682Z" fill="black"/>
<path d="M204.323 64.7339L194.838 63.0625L194.469 65.1577L198.02 65.7837L196.375 75.1079L198.758 75.5287L200.403 66.2031L203.954 66.8291L204.323 64.7339Z" fill="black"/>
<path d="M214.144 69.6977C214.268 67.5921 212.734 66.0034 210.255 65.5664C207.488 65.0776 205.683 66.343 205.35 68.23C205.048 69.9413 205.898 71.1963 207.726 71.8652L209.834 72.633C210.75 72.9593 211.293 73.4332 211.135 74.3295C210.974 75.242 210.034 75.62 208.786 75.4C207.555 75.1829 206.518 74.6041 206.533 73.3033L204.101 72.8751C203.928 75.1696 205.449 76.9223 208.328 77.4302C211.432 77.978 213.219 76.5443 213.554 74.641C213.916 72.5931 212.776 71.3868 211.041 70.7504L208.981 69.9915C208.222 69.7095 207.63 69.3241 207.763 68.5725C207.921 67.6778 208.856 67.4297 209.863 67.6069C211.047 67.8166 211.667 68.3215 211.714 69.2695L214.144 69.6977Z" fill="black"/>
<path d="M229.492 69.1725L228.708 73.6197L223.654 72.7279L224.438 68.2821L222.055 67.8613L220.041 79.2822L222.424 79.7015L223.269 74.9191L228.323 75.8109L227.48 80.5933L229.863 81.0127L231.877 69.5933L229.492 69.1725Z" fill="black"/>
<path d="M235.483 79.8102L235.957 77.1229L240.676 77.9557L241.042 75.8753L236.323 75.044L236.747 72.6446L242.809 73.7136L243.184 71.586L234.739 70.0977L232.725 81.517L241.346 83.0379L241.721 80.9102L235.483 79.8102Z" fill="black"/>
<path d="M250.983 72.9616L245.608 72.0137L243.596 83.4331L245.979 83.8539L246.738 79.5513L249.824 80.0961L250.6 84.6689L253 85.0927L252.137 79.9765C253.327 79.5912 254.12 78.6432 254.371 77.2199C254.764 74.9962 253.511 73.406 250.983 72.9616ZM247.622 74.5282L250.038 74.9549C251.606 75.231 252.121 75.767 251.935 76.8227C251.765 77.7824 251.142 78.2328 249.75 77.9877L247.095 77.5196L247.622 74.5282Z" fill="black"/>
<path d="M258.178 83.8122L258.652 81.1249L263.369 81.9577L263.737 79.8787L259.018 79.046L259.44 76.6466L265.503 77.7156L265.878 75.588L257.432 74.0996L255.42 85.519L264.04 87.0398L264.416 84.9122L258.178 83.8122Z" fill="black"/>
</g>
<defs>
<filter id="filter0_d_1_1048" x="0.869141" y="0.869629" width="316.261" height="137.804" filterUnits="userSpaceOnUse" color-interpolation-filters="sRGB">
<feFlood flood-opacity="0" result="BackgroundImageFix"/>
<feColorMatrix in="SourceAlpha" type="matrix" values="0 0 0 0 0 0 0 0 0 0 0 0 0 0 0 0 0 0 127 0" result="hardAlpha"/>
<feOffset dy="8"/>
<feGaussianBlur stdDeviation="16"/>
<feColorMatrix type="matrix" values="0 0 0 0 0.0196078 0 0 0 0 0 0 0 0 0 0.219608 0 0 0 0.08 0"/>
<feBlend mode="normal" in2="BackgroundImageFix" result="effect1_dropShadow_1_1048"/>
<feBlend mode="normal" in="SourceGraphic" in2="effect1_dropShadow_1_1048" result="shape"/>
</filter>
</defs>
</svg>
