<svg width="32" height="30" viewBox="0 0 32 30" fill="none" xmlns="http://www.w3.org/2000/svg">
<path fill-rule="evenodd" clip-rule="evenodd" d="M11.993 4.06641H21.7849C25.1648 4.06641 27.9049 6.80633 27.9049 10.1862V19.9778C27.9049 23.3577 25.1648 26.0977 21.7849 26.0977H11.993C8.61304 26.0977 5.87305 23.3577 5.87305 19.9778V10.1862C5.87305 6.80633 8.61304 4.06641 11.993 4.06641ZM22.7084 10.4903C23.3844 10.4903 23.9324 9.94229 23.9324 9.26631C23.9324 8.59035 23.3844 8.04236 22.7084 8.04236C22.0324 8.04236 21.4844 8.59035 21.4844 9.26631C21.4844 9.94229 22.0324 10.4903 22.7084 10.4903ZM16.8903 9.57423C13.8483 9.57423 11.3823 12.0402 11.3823 15.082C11.3823 18.124 13.8483 20.5898 16.8903 20.5898C19.9321 20.5898 22.3982 18.124 22.3982 15.082C22.4015 13.6203 21.8222 12.2175 20.7886 11.1838C19.7549 10.1502 18.352 9.57097 16.8903 9.57423ZM13.5241 15.0801C13.5241 16.9391 15.0311 18.4461 16.8901 18.4461C18.749 18.4461 20.256 16.9391 20.256 15.0801C20.256 13.2212 18.749 11.7142 16.8901 11.7142C15.0311 11.7142 13.5241 13.2212 13.5241 15.0801Z" fill="black"/>
</svg>
