<svg width="32" height="30" viewBox="0 0 32 30" fill="none" xmlns="http://www.w3.org/2000/svg">
<g clip-path="url(#clip0_1_1222)">
<path d="M27.7858 8.30658C27.1542 9.14909 26.3907 9.88402 25.5249 10.483C25.5249 10.7031 25.5249 10.9232 25.5249 11.1555C25.5318 15.1522 23.9352 18.9846 21.0932 21.7935C18.2511 24.6021 14.4014 26.1526 10.4068 26.0969C8.09746 26.1045 5.81769 25.5772 3.74609 24.5563C3.63439 24.5074 3.56234 24.397 3.56275 24.2751V24.1405C3.56275 23.965 3.70502 23.8227 3.88052 23.8227C6.15055 23.7478 8.33959 22.9608 10.1379 21.5728C8.08324 21.5314 6.23455 20.3143 5.38377 18.4428C5.34079 18.3406 5.35417 18.2232 5.41906 18.1333C5.48397 18.0434 5.59102 17.9939 5.70153 18.0026C6.32598 18.0653 6.9567 18.0073 7.55919 17.8314C5.29099 17.3606 3.58668 15.4775 3.34277 13.1729C3.33411 13.0624 3.38365 12.9553 3.47351 12.8903C3.56337 12.8254 3.68056 12.812 3.78275 12.855C4.39143 13.1236 5.0485 13.2651 5.71375 13.2707C3.72626 11.9663 2.8678 9.48518 3.62387 7.23061C3.7019 7.01153 3.88941 6.84969 4.11747 6.80455C4.34551 6.75943 4.58049 6.83766 4.73602 7.01051C7.41801 9.86488 11.1031 11.5658 15.0143 11.7546C14.9141 11.3548 14.8649 10.944 14.8677 10.5319C14.9042 8.37093 16.2414 6.4459 18.2531 5.65803C20.2647 4.87016 22.5526 5.37538 24.046 6.93716C25.064 6.74324 26.0481 6.40135 26.9669 5.92232C27.0342 5.8803 27.1197 5.8803 27.187 5.92232C27.229 5.98966 27.229 6.07507 27.187 6.14241C26.7418 7.16165 25.9899 8.01652 25.0359 8.5878C25.8714 8.49093 26.692 8.29388 27.4803 8.00091C27.5467 7.95573 27.6339 7.95573 27.7003 8.00091C27.7558 8.02635 27.7974 8.07499 27.8138 8.13389C27.8304 8.19278 27.8202 8.25596 27.7858 8.30658Z" fill="black"/>
</g>
<defs>
<clipPath id="clip0_1_1222">
<rect width="30.875" height="29.375" fill="white" transform="translate(0.328125 0.394531)"/>
</clipPath>
</defs>
</svg>
