<svg width="32" height="30" viewBox="0 0 32 30" fill="none" xmlns="http://www.w3.org/2000/svg">
<g clip-path="url(#clip0_1_1230)">
<path fill-rule="evenodd" clip-rule="evenodd" d="M23.438 5.70603L25.225 5.88963C27.3407 6.12875 28.9293 7.93452 28.897 10.0633V20.0998C28.9293 22.2286 27.3407 24.0343 25.225 24.2736L23.5114 24.4572C18.1646 25.0078 12.7752 25.0078 7.42822 24.4572L5.64121 24.2736C3.52555 24.0343 1.93686 22.2286 1.96924 20.0998V10.0633C1.93686 7.93452 3.52555 6.12875 5.64121 5.88963L7.35478 5.70603C12.7017 5.15528 18.0911 5.15528 23.438 5.70603ZM14.3438 19.0226L19.105 15.8404H19.1785C19.4351 15.6733 19.5899 15.3878 19.5899 15.0815C19.5899 14.7753 19.4351 14.4898 19.1785 14.3227L14.4172 11.1404C14.1361 10.9504 13.7731 10.9309 13.4733 11.0898C13.1735 11.2487 12.9857 11.5599 12.9851 11.8992V18.2639C13.0009 18.5797 13.1782 18.8652 13.4543 19.0194C13.7305 19.1736 14.0665 19.1749 14.3438 19.0226Z" fill="black"/>
</g>
<defs>
<clipPath id="clip0_1_1230">
<rect width="30.875" height="29.375" fill="white" transform="translate(0.328125 0.394531)"/>
</clipPath>
</defs>
</svg>
